# xmcd
#
# Track frame offsets: 
#        187
#        1592
#        19740
#        42695
#        67525
#        101197
#        121807
#        142407
#        168797
#
# Disc length: 2650 seconds
#
# Revision: 1
# Processed by: cddbd v1.5.2PL0 Copyright (c) Steve Scherf et al.
# Submitted via: ExactAudioCopy v0.99pb3
#
DISCID=6e0a5809
DTITLE=John Mayall - Lots Of People
DYEAR=1977
DGENRE=Blues
TTITLE0=Spoken Introduction By Red Holloway
TTITLE1=Changes In The Wind
TTITLE2=Burning Down
TTITLE3=Play The Harp
TTITLE4=A Helping Hand
TTITLE5=I Got To Get Down With You
TTITLE6=He's A Travelling Man
TTITLE7=Separate Ways
TTITLE8=Room To Move
EXTD=
EXTT0=
EXTT1=
EXTT2=
EXTT3=
EXTT4=
EXTT5=
EXTT6=
EXTT7=
EXTT8=
PLAYORDER=
